<svg width="75" height="93" viewBox="0 0 75 93" fill="none" xmlns="http://www.w3.org/2000/svg">
<path d="M75 17.277L73.1855 17.7316L67.7418 19.0956L52.3181 22.2782L55.04 13.1851C33.719 7.27451 11.4908 19.5502 5.13982 40.9191C-1.66474 62.288 9.67619 85.0208 30.5435 92.75C8.31528 85.0208 -4.38657 60.924 2.87163 37.7365C10.1298 15.0037 34.1726 1.81863 56.8545 8.63848L59.1227 0L75 17.277Z" fill="#00C368"/>
<g transform="translate(15,30)">
    <path d="M27.7917 7.82712C27.7917 9.64575 27.3381 11.919 26.4308 14.1923C25.5236 16.4656 24.1627 18.2842 22.8017 20.5575C21.4408 22.8308 19.6263 24.6494 17.8117 26.0134C15.9972 27.832 14.6363 29.196 12.8217 31.0146L9.64624 33.2879V33.7426L13.2753 32.8332H22.8017L21.4408 38.7438H0.573486L1.48077 35.1065C2.38804 34.1972 3.74895 32.8332 5.10986 31.9239C6.47078 30.56 7.8317 29.196 9.19261 27.832C10.5535 26.4681 12.3681 24.6494 13.729 23.2855C15.0899 21.9215 16.4508 20.1029 17.3581 18.7389C18.2654 17.3749 19.1726 15.5563 20.0799 14.1923C20.9872 12.8283 20.9872 11.4644 20.9872 10.1004C20.9872 8.73644 20.5335 7.82712 20.0799 7.37247C19.6263 6.46315 18.2654 6.00849 16.4508 6.00849C15.5435 6.00849 14.1826 6.46315 12.8217 6.91781C11.4608 7.37247 10.5535 8.28178 9.19261 9.19109L7.37805 4.18987C9.1926 2.8259 11.0072 1.91658 12.8217 1.46193C14.6363 1.00727 16.4508 0.552612 19.1726 0.552612C21.8945 0.552612 23.709 1.46193 25.5236 2.8259C27.3381 3.28055 27.7917 5.55384 27.7917 7.82712Z" fill="#A6ABBD"/>
    <path transform="translate(28)" d="M28.2782 27.8317H22.3809L20.1127 38.7435H13.7618L16.03 27.8317H0.606262L1.51352 23.7398L22.8345 0.0976562H28.2782L23.7418 22.3758H29.6391L28.2782 27.8317ZM19.2054 13.7374L20.5663 9.19079L17.8445 13.2827L11.0399 20.5572L7.86446 22.8305L11.0399 22.3758H16.9372L19.2054 13.7374Z" fill="#A6ABBD"/>
</g>
</svg>